<svg width="25" height="25" viewBox="0 0 25 25" fill="none" xmlns="http://www.w3.org/2000/svg">
<path d="M12.1341 14.1564C14.3647 14.1564 16.1788 12.3424 16.1788 10.1117C16.1788 7.88106 14.3647 6.06702 12.1341 6.06702C9.90344 6.06702 8.08939 7.88106 8.08939 10.1117C8.08939 12.3424 9.90344 14.1564 12.1341 14.1564ZM12.1341 8.08936C13.2494 8.08936 14.1564 8.99639 14.1564 10.1117C14.1564 11.227 13.2494 12.1341 12.1341 12.1341C11.0188 12.1341 10.1117 11.227 10.1117 10.1117C10.1117 8.99639 11.0188 8.08936 12.1341 8.08936Z" fill="#8C8C8C"/>
<path d="M11.5476 22.0577C11.7189 22.1797 11.9239 22.2452 12.1341 22.2452C12.3443 22.2452 12.5493 22.1797 12.7206 22.0577C13.028 21.8403 20.2528 16.6237 20.2235 10.1117C20.2235 5.65144 16.5944 2.02234 12.1341 2.02234C7.6738 2.02234 4.04469 5.65144 4.04469 10.1067C4.01537 16.6237 11.2402 21.8403 11.5476 22.0577ZM12.1341 4.04469C15.4801 4.04469 18.2011 6.76575 18.2011 10.1168C18.2224 14.6044 13.7641 18.6339 12.1341 19.9555C10.5051 18.6329 6.04581 14.6023 6.06704 10.1117C6.06704 6.76575 8.78811 4.04469 12.1341 4.04469Z" fill="#8C8C8C"/>
</svg>
