<svg width="88" height="21" viewBox="0 0 88 21" fill="none" xmlns="http://www.w3.org/2000/svg">
<path d="M8.12803 -2.86102e-05C10.0694 -2.86102e-05 11.552 0.501305 12.576 1.50397C13.6214 2.50664 14.144 3.86131 14.144 5.56797C14.144 6.82664 13.824 7.91464 13.184 8.83197C12.5654 9.74931 11.6907 10.4 10.56 10.784L14.624 20.16H11.776L8.00003 11.232H2.62403V20.16H2.64645e-05V-2.86102e-05H8.12803ZM2.62403 8.86397H8.03203C9.07736 8.86397 9.90936 8.56531 10.528 7.96797C11.1467 7.37064 11.456 6.57064 11.456 5.56797C11.456 4.54397 11.1574 3.75464 10.56 3.19997C9.98403 2.62397 9.14136 2.33597 8.03203 2.33597H2.62403V8.86397ZM29.8543 -2.86102e-05V2.33597H20.0303V8.63997H28.5743V11.008H20.0303V17.792H30.0463V20.16H17.4063V-2.86102e-05H29.8543ZM33.34 4.67197H36.284V7.83997H33.34V4.67197ZM33.34 16.992H36.284V20.16H33.34V16.992ZM47.7068 -2.86102e-05C49.2214 -2.86102e-05 50.4694 0.458639 51.4508 1.37597C52.4534 2.27197 52.9548 3.45597 52.9548 4.92797C52.9548 6.03731 52.6561 7.00797 52.0588 7.83997C51.4828 8.67197 50.7468 9.24797 49.8508 9.56797V9.66397C50.8748 10.0053 51.7174 10.6346 52.3788 11.552C53.0614 12.4693 53.4028 13.5573 53.4028 14.816C53.4028 15.904 53.1468 16.8533 52.6348 17.664C52.1228 18.4746 51.4294 19.0933 50.5548 19.52C49.7014 19.9466 48.7521 20.16 47.7068 20.16H40.0588V-2.86102e-05H47.7068ZM46.9708 8.63997C47.9308 8.63997 48.7094 8.33064 49.3068 7.71197C49.9041 7.09331 50.2028 6.34664 50.2028 5.47197C50.2028 4.44797 49.9254 3.66931 49.3708 3.13597C48.8374 2.60264 48.1014 2.33597 47.1628 2.33597H42.6508V8.63997H46.9708ZM47.3868 17.792C48.3681 17.792 49.1681 17.504 49.7868 16.928C50.4054 16.3306 50.7148 15.5093 50.7148 14.464C50.7148 13.5253 50.3841 12.7146 49.7228 12.032C49.0828 11.3493 48.2401 11.008 47.1948 11.008H42.6508V17.792H47.3868ZM69.5925 13.6C69.5925 15.84 69.0059 17.5573 67.8325 18.752C66.6805 19.9253 65.0592 20.512 62.9685 20.512C60.8565 20.512 59.2139 19.9253 58.0405 18.752C56.8885 17.5573 56.3125 15.84 56.3125 13.6V-2.86102e-05H58.9365V13.728C58.9365 15.1573 59.2885 16.256 59.9925 17.024C60.6965 17.7706 61.6885 18.144 62.9685 18.144C64.2699 18.144 65.2725 17.7706 65.9765 17.024C66.6805 16.256 67.0325 15.1573 67.0325 13.728V-2.86102e-05H69.5925V13.6ZM78.4228 20.16V11.808L71.8948 -2.86102e-05H74.7748L79.8948 9.34397H79.9908L85.0148 -2.86102e-05H87.5108L81.0148 11.808V20.16H78.4228Z" fill="white"/>
</svg>
