<svg width="23" height="28" viewBox="0 0 23 28" fill="none" xmlns="http://www.w3.org/2000/svg">
<path d="M15.2083 22.9584C15.2083 23.9861 14.8 24.9717 14.0733 25.6984C13.3466 26.4251 12.361 26.8334 11.3333 26.8334C10.3056 26.8334 9.31994 26.4251 8.59323 25.6984C7.86653 24.9717 7.45827 23.9861 7.45827 22.9584M12.2646 4.8789L10.371 4.87502C6.05165 4.86469 2.30194 8.37415 2.27223 12.625V17.5204C2.27223 18.5409 2.14306 19.5367 1.58636 20.3854L1.21565 20.9511C0.651189 21.8088 1.25827 22.9584 2.27223 22.9584H20.3943C21.4083 22.9584 22.0141 21.8088 21.4509 20.9511L21.0802 20.3854C20.5248 19.5367 20.3943 18.5396 20.3943 17.5191V12.6263C20.3426 8.37415 16.5839 4.88923 12.2646 4.8789Z" stroke="#D9D9D9" stroke-width="2" stroke-linecap="round" stroke-linejoin="round"/>
<path d="M11.3333 1C12.0184 1 12.6755 1.27217 13.16 1.75664C13.6444 2.24111 13.9166 2.89819 13.9166 3.58333V4.875H8.74994V3.58333C8.74994 2.89819 9.02211 2.24111 9.50658 1.75664C9.99105 1.27217 10.6481 1 11.3333 1Z" stroke="#D9D9D9" stroke-width="2" stroke-linecap="round" stroke-linejoin="round"/>
</svg>
