<svg width="25" height="25" viewBox="0 0 25 25" fill="none" xmlns="http://www.w3.org/2000/svg">
<path d="M4.14076 20.2791L7.22281 19.2507L7.77795 19.5207C9.06264 20.1441 10.5309 20.4763 12.1341 20.4763C17.4367 20.4763 21.2346 16.6874 21.2346 12.1341C21.2346 7.56409 17.464 3.79191 12.1341 3.79191C6.80419 3.79191 3.03352 7.56409 3.03352 12.1341C3.04248 13.883 3.61833 15.5818 4.67466 16.9756L5.18732 17.6581L4.14076 20.2776V20.2791ZM3.06841 22.2357C2.93115 22.2817 2.7836 22.2874 2.64318 22.2523C2.50277 22.2171 2.37535 22.1425 2.27599 22.0372C2.17662 21.9319 2.10946 21.8004 2.08243 21.6582C2.05541 21.516 2.06965 21.369 2.12347 21.2347L3.46277 17.8872C2.20868 16.2306 1.52583 14.2118 1.51676 12.1341C1.51676 7.10755 5.58471 2.27515 12.1341 2.27515C18.6835 2.27515 22.7514 7.10755 22.7514 12.1341C22.7514 17.1606 18.641 21.993 12.1341 21.993C10.2457 21.993 8.55908 21.5865 7.11664 20.8858L3.06689 22.2357H3.06841Z" fill="#8C8C8C"/>
</svg>
