<svg width="28" height="28" viewBox="0 0 28 28" fill="none" xmlns="http://www.w3.org/2000/svg">
<path d="M13.6508 5.68786C13.1983 5.68786 12.7643 5.86764 12.4443 6.18764C12.1243 6.50764 11.9445 6.94166 11.9445 7.39422C11.9445 7.84677 12.1243 8.28079 12.4443 8.60079C12.7643 8.92079 13.1983 9.10057 13.6508 9.10057C14.1034 9.10057 14.5374 8.92079 14.8574 8.60079C15.1774 8.28079 15.3572 7.84677 15.3572 7.39422C15.3572 6.94166 15.1774 6.50764 14.8574 6.18764C14.5374 5.86764 14.1034 5.68786 13.6508 5.68786ZM9.66935 7.39422C9.66935 6.87136 9.77234 6.35362 9.97242 5.87056C10.1725 5.38751 10.4658 4.94859 10.8355 4.57887C11.2052 4.20916 11.6441 3.91588 12.1272 3.71579C12.6103 3.5157 13.128 3.41272 13.6508 3.41272C14.1737 3.41272 14.6914 3.5157 15.1745 3.71579C15.6576 3.91588 16.0965 4.20916 16.4662 4.57887C16.8359 4.94859 17.1292 5.38751 17.3293 5.87056C17.5294 6.35362 17.6323 6.87136 17.6323 7.39422C17.6323 8.45017 17.2129 9.46288 16.4662 10.2096C15.7195 10.9562 14.7068 11.3757 13.6508 11.3757C12.5949 11.3757 11.5822 10.9562 10.8355 10.2096C10.0888 9.46288 9.66935 8.45017 9.66935 7.39422ZM5.68786 9.10057C5.38615 9.10057 5.09681 9.22042 4.88347 9.43376C4.67014 9.64709 4.55028 9.93644 4.55028 10.2381C4.55028 10.5398 4.67014 10.8292 4.88347 11.0425C5.09681 11.2559 5.38615 11.3757 5.68786 11.3757C5.98956 11.3757 6.2789 11.2559 6.49224 11.0425C6.70557 10.8292 6.82543 10.5398 6.82543 10.2381C6.82543 9.93644 6.70557 9.64709 6.49224 9.43376C6.2789 9.22042 5.98956 9.10057 5.68786 9.10057ZM2.27514 10.2381C2.27514 9.33303 2.6347 8.465 3.2747 7.82499C3.91471 7.18498 4.78275 6.82543 5.68786 6.82543C6.59296 6.82543 7.461 7.18498 8.10101 7.82499C8.74101 8.465 9.10057 9.33303 9.10057 10.2381C9.10057 11.1432 8.74101 12.0113 8.10101 12.6513C7.461 13.2913 6.59296 13.6509 5.68786 13.6509C4.78275 13.6509 3.91471 13.2913 3.2747 12.6513C2.6347 12.0113 2.27514 11.1432 2.27514 10.2381ZM20.4763 10.2381C20.4763 9.93644 20.5961 9.64709 20.8095 9.43376C21.0228 9.22042 21.3121 9.10057 21.6138 9.10057C21.9155 9.10057 22.2049 9.22042 22.4182 9.43376C22.6316 9.64709 22.7514 9.93644 22.7514 10.2381C22.7514 10.5398 22.6316 10.8292 22.4182 11.0425C22.2049 11.2559 21.9155 11.3757 21.6138 11.3757C21.3121 11.3757 21.0228 11.2559 20.8095 11.0425C20.5961 10.8292 20.4763 10.5398 20.4763 10.2381ZM21.6138 6.82543C20.7087 6.82543 19.8407 7.18498 19.2007 7.82499C18.5607 8.465 18.2011 9.33303 18.2011 10.2381C18.2011 11.1432 18.5607 12.0113 19.2007 12.6513C19.8407 13.2913 20.7087 13.6509 21.6138 13.6509C22.5189 13.6509 23.387 13.2913 24.027 12.6513C24.667 12.0113 25.0266 11.1432 25.0266 10.2381C25.0266 9.33303 24.667 8.465 24.027 7.82499C23.387 7.18498 22.5189 6.82543 21.6138 6.82543ZM9.10057 16.4948C9.10057 14.9249 10.3746 13.6509 11.9445 13.6509H15.3572C16.9271 13.6509 18.2011 14.9249 18.2011 16.4948V19.3387C18.2011 20.5455 17.7217 21.7029 16.8684 22.5562C16.015 23.4096 14.8577 23.889 13.6508 23.889C12.444 23.889 11.2867 23.4096 10.4333 22.5562C9.57997 21.7029 9.10057 20.5455 9.10057 19.3387V16.4948ZM11.9445 15.926C11.7936 15.926 11.649 15.9859 11.5423 16.0926C11.4356 16.1993 11.3757 16.3439 11.3757 16.4948V19.3387C11.3757 19.9421 11.6154 20.5208 12.0421 20.9475C12.4688 21.3741 13.0474 21.6138 13.6508 21.6138C14.2543 21.6138 14.8329 21.3741 15.2596 20.9475C15.6863 20.5208 15.926 19.9421 15.926 19.3387V16.4948C15.926 16.3439 15.8661 16.1993 15.7594 16.0926C15.6527 15.9859 15.5081 15.926 15.3572 15.926H11.9445ZM6.82543 16.4948C6.82543 15.8373 6.94828 15.2093 7.1758 14.6337L4.3751 15.3845C3.64697 15.5797 3.02612 16.056 2.64899 16.7087C2.27186 17.3614 2.16931 18.1372 2.36387 18.8655L2.80525 20.515C2.95995 21.0922 3.22686 21.6334 3.59073 22.1075C3.9546 22.5816 4.4083 22.9794 4.92592 23.2781C5.44353 23.5768 6.01493 23.7707 6.60748 23.8486C7.20003 23.9264 7.80211 23.8868 8.37935 23.732L8.41802 23.7206C7.89319 23.0954 7.48479 22.381 7.2122 21.6116C6.70944 21.6141 6.21999 21.4501 5.82032 21.1451C5.42064 20.8401 5.13325 20.4113 5.00304 19.9257L4.56166 18.2762C4.52276 18.1305 4.54333 17.9753 4.61885 17.8447C4.69437 17.7142 4.81865 17.619 4.96436 17.58L6.82543 17.0795V16.4948ZM18.9201 23.7297L18.8837 23.7229C19.4024 23.1018 19.8142 22.3897 20.0895 21.6116C20.5919 21.6136 21.0808 21.4494 21.48 21.1444C21.8792 20.8394 22.1663 20.4109 22.2964 19.9257L22.7355 18.2762C22.7744 18.1305 22.7538 17.9753 22.6783 17.8447C22.6028 17.7142 22.4785 17.619 22.3328 17.58L20.4763 17.0818V16.4948C20.4763 15.8373 20.3534 15.2116 20.1282 14.6337L22.922 15.3845C23.6502 15.5797 24.271 16.056 24.6482 16.7087C25.0253 17.3614 25.1278 18.1372 24.9333 18.8655L24.4919 20.515C24.3372 21.0922 24.0703 21.6334 23.7064 22.1075C23.3426 22.5816 22.8889 22.9794 22.3712 23.2781C21.8536 23.5768 21.2822 23.7707 20.6897 23.8486C20.0971 23.9264 19.495 23.8868 18.9178 23.732" fill="#8C8C8C"/>
</svg>
