<svg width="28" height="28" viewBox="0 0 28 28" fill="none" xmlns="http://www.w3.org/2000/svg">
<path d="M20.5 10.5C22.1569 10.5 23.5 9.15685 23.5 7.5C23.5 5.84315 22.1569 4.5 20.5 4.5C18.8431 4.5 17.5 5.84315 17.5 7.5C17.5 9.15685 18.8431 10.5 20.5 10.5Z" stroke="white" stroke-width="2" stroke-miterlimit="10"/>
<path d="M20.5 23.5C22.1569 23.5 23.5 22.1569 23.5 20.5C23.5 18.8431 22.1569 17.5 20.5 17.5C18.8431 17.5 17.5 18.8431 17.5 20.5C17.5 22.1569 18.8431 23.5 20.5 23.5Z" stroke="white" stroke-width="2" stroke-miterlimit="10"/>
<path d="M10.155 12.67L17.82 8.83997" stroke="white" stroke-width="2" stroke-miterlimit="10"/>
<path d="M17.815 19.155L10.185 15.34" stroke="white" stroke-width="2" stroke-miterlimit="10"/>
<path d="M7.5 17C9.15685 17 10.5 15.6569 10.5 14C10.5 12.3431 9.15685 11 7.5 11C5.84315 11 4.5 12.3431 4.5 14C4.5 15.6569 5.84315 17 7.5 17Z" stroke="white" stroke-width="2" stroke-miterlimit="10"/>
</svg>
